HIERARCHY
ROOT Hips
{
    OFFSET 0.000000 0.000000 0.000000
    CHANNELS 6 Xposition Yposition Zposition Zrotation Xrotation Yrotation
    JOINT Spine
    {
        OFFSET -0.000000 14.517291 0.000000
        CHANNELS 3 Zrotation Xrotation Yrotation
        JOINT Spine1
        {
            OFFSET -0.000000 37.558300 0.000000
            CHANNELS 3 Zrotation Xrotation Yrotation
            JOINT Neck
            {
                OFFSET -0.000000 37.404057 3.400369
                CHANNELS 3 Zrotation Xrotation Yrotation
                JOINT Head
                {
                    OFFSET -0.000000 24.785618 -3.540803
                    CHANNELS 3 Zrotation Xrotation Yrotation
                    End Site
                    {
                        OFFSET -0.000000 35.408028 0.000000
                    }
                }
            }
            JOINT LeftShoulder
            {
                OFFSET 6.992933 33.973492 -0.192664
                CHANNELS 3 Zrotation Xrotation Yrotation
                JOINT LeftArm
                {
                    OFFSET 21.527611 0.000000 0.000000
                    CHANNELS 3 Zrotation Xrotation Yrotation
                    JOINT LeftForeArm
                    {
                        OFFSET 56.353916 0.000000 0.000000
                        CHANNELS 3 Zrotation Xrotation Yrotation
                        JOINT LeftHand
                        {
                            OFFSET 47.774071 0.000000 0.000000
                            CHANNELS 3 Zrotation Xrotation Yrotation
                            End Site
                            {
                                OFFSET 26.556021 0.000000 0.000000
                            }
                        }
                    }
                }
            }
            JOINT RightShoulder
            {
                OFFSET -7.065357 33.973492 -0.192664
                CHANNELS 3 Zrotation Xrotation Yrotation
                JOINT RightArm
                {
                    OFFSET -21.527611 0.000000 0.000000
                    CHANNELS 3 Zrotation Xrotation Yrotation
                    JOINT RightForeArm
                    {
                        OFFSET -56.353916 0.000000 0.000000
                        CHANNELS 3 Zrotation Xrotation Yrotation
                        JOINT RightHand
                        {
                            OFFSET -47.774071 0.000000 0.000000
                            CHANNELS 3 Zrotation Xrotation Yrotation
                            End Site
                            {
                                OFFSET -26.556021 0.000000 0.000000
                            }
                        }
                    }
                }
            }
        }
    }
    JOINT LeftUpLeg
    {
        OFFSET 17.704014 0.000000 0.000000
        CHANNELS 3 Zrotation Xrotation Yrotation
        JOINT LeftLeg
        {
            OFFSET -0.000000 -81.181816 0.000000
            CHANNELS 3 Zrotation Xrotation Yrotation
            JOINT LeftFoot
            {
                OFFSET -0.000000 -62.821102 0.000000
                CHANNELS 3 Zrotation Xrotation Yrotation
                JOINT LeftToeBase
                {
                    OFFSET -0.000000 -11.507608 26.556021
                    CHANNELS 3 Zrotation Xrotation Yrotation
                    End Site
                    {
                        OFFSET -0.000000 0.000000 7.081605
                    }
                }
            }
        }
    }
    JOINT RightUpLeg
    {
        OFFSET -17.704014 0.000000 0.000000
        CHANNELS 3 Zrotation Xrotation Yrotation
        JOINT RightLeg
        {
            OFFSET -0.000000 -81.181816 0.000000
            CHANNELS 3 Zrotation Xrotation Yrotation
            JOINT RightFoot
            {
                OFFSET -0.000000 -62.821102 0.000000
                CHANNELS 3 Zrotation Xrotation Yrotation
                JOINT RightToeBase
                {
                    OFFSET -0.000000 -11.507608 26.556021
                    CHANNELS 3 Zrotation Xrotation Yrotation
                    End Site
                    {
                        OFFSET -0.000000 0.000000 7.081605
                    }
                }
            }
        }
    }
}
MOTION
Frames:    11
Frame Time:    0.008333
-20.483175    162.260269    -75.878731    -7.639092    -27.634939    44.471039    4.460979    7.214600    -3.311876    2.973810    8.443764    -1.227138    15.960910    3.557666    -7.650718    8.819055    -5.576715    -8.172535    7.693968    3.818336    -18.372288    -33.573860    -15.122067    -50.773628    35.923901    -59.271370    -46.239536    -22.188192    -45.202785    -35.792343    11.730309    8.219251    -10.080066    33.803699    16.177898    15.003072    -12.650167    2.687713    35.614655    -23.072622    0.175017    31.461472    29.073759    1.624616    3.467685    -5.202586    42.473602    -17.777231    8.987665    -25.596586    36.311451    0.000000    0.000000    0.000000    -82.631813    -42.862846    -49.303368    10.073412    17.122095    -9.877042    19.327875    9.669567    -33.592045    0.000000    0.000000    0.000000    
-20.471251    162.248917    -75.880074    -7.627507    -27.620760    44.480568    4.447207    7.212259    -3.315550    2.963781    8.434088    -1.227739    15.974176    3.547304    -7.632051    8.784954    -5.539267    -8.165401    7.707142    3.849945    -18.434090    -33.528793    -14.779151    -51.012821    35.261288    -59.562725    -46.989307    -22.635059    -45.477852    -36.065792    11.726021    8.208064    -10.078256    33.800877    16.198250    15.004328    -12.638028    2.718051    35.562778    -23.123255    0.182327    31.451818    29.058065    1.617215    3.458912    -5.233972    42.486080    -17.720682    9.039577    -25.589230    36.285809    0.000000    0.000000    0.000000    -82.647369    -42.847851    -49.315895    10.067501    17.097151    -9.899454    19.333063    9.686905    -33.574406    0.000000    0.000000    0.000000    
-20.464973    162.232727    -75.884689    -7.624406    -27.589695    44.483490    4.421054    7.197540    -3.315494    2.955586    8.421261    -1.227515    16.005327    3.537372    -7.610150    8.733421    -5.508523    -8.159748    7.734127    3.898271    -18.480759    -33.455715    -14.359650    -51.291031    35.235840    -59.573456    -47.248947    -22.705599    -45.404655    -36.127613    11.737447    8.201663    -10.075585    33.788891    16.246159    15.001752    -12.661952    2.702848    35.522713    -23.115269    0.167806    31.472155    29.034216    1.591454    3.469810    -5.242909    42.508583    -17.707443    9.091780    -25.582663    36.271660    0.000000    0.000000    0.000000    -82.936127    -42.437283    -48.472561    11.285343    16.657951    -9.508138    19.183767    9.234888    -34.993847    0.000000    0.000000    0.000000    
-20.458584    162.218887    -75.890266    -7.626865    -27.554924    44.486786    4.360553    7.166685    -3.322100    3.023021    8.420871    -1.236296    15.977015    3.544195    -7.588040    8.701769    -5.488544    -8.139736    7.722939    3.958981    -18.546360    -33.331226    -13.901141    -51.520744    35.268574    -59.640869    -47.508148    -22.816420    -45.401463    -36.055172    11.690094    8.198779    -10.053968    33.788033    16.248531    15.005283    -12.645030    2.709073    35.495361    -23.120363    0.158601    31.495169    29.014793    1.562982    3.470424    -5.285424    42.520290    -17.650780    9.156424    -25.567715    36.249790    0.000000    0.000000    0.000000    -82.998642    -42.459774    -48.547039    11.248675    16.695621    -9.553636    19.180193    9.259807    -34.938255    0.000000    0.000000    0.000000    
-20.449921    162.212646    -75.893356    -7.631439    -27.533998    44.480572    4.340461    7.152674    -3.321546    3.032090    8.410027    -1.237138    16.003145    3.534391    -7.562661    8.638168    -5.458480    -8.132009    7.740225    4.020685    -18.619617    -33.282272    -13.518667    -51.773483    35.119373    -59.626476    -47.952175    -22.888914    -45.286369    -36.112122    11.695781    8.197876    -10.048593    33.771042    16.238438    15.012295    -12.638769    2.721378    35.492809    -23.159325    0.156096    31.499653    29.002888    1.560406    3.499691    -5.282829    42.509865    -17.651154    9.223087    -25.549870    36.228699    0.000000    0.000000    0.000000    -83.032967    -42.467571    -48.578625    11.241947    16.705940    -9.514398    19.186998    9.238498    -34.933994    0.000000    0.000000    0.000000    
-20.439859    162.208115    -75.896545    -7.633136    -27.520918    44.477249    4.332371    7.141452    -3.321146    3.023785    8.410875    -1.236726    16.029217    3.550729    -7.551367    8.594777    -5.476724    -8.127797    7.769528    4.075067    -18.687353    -33.212341    -13.094189    -52.026115    34.966507    -59.632500    -48.440620    -23.032677    -45.179848    -36.120911    11.716087    8.171926    -10.042600    33.747555    16.257126    15.007120    -12.655393    2.719851    35.483833    -23.164106    0.145242    31.554787    28.995071    1.566286    3.520090    -5.289800    42.492710    -17.628101    9.253970    -25.540300    36.185547    0.000000    0.000000    0.000000    -82.627769    -42.703442    -49.888241    9.941900    16.800547    -9.065694    19.226429    9.693396    -33.711716    0.000000    0.000000    0.000000    
-20.423735    162.204834    -75.897758    -7.632393    -27.512966    44.477539    4.327037    7.129389    -3.325999    3.023575    8.416484    -1.238784    16.080244    3.534179    -7.526633    8.496062    -5.455412    -8.130652    7.786567    4.130210    -18.760300    -33.166725    -12.694439    -52.273361    34.600063    -59.621426    -49.148449    -23.067835    -45.102657    -36.072605    11.725868    8.167499    -10.030465    33.727943    16.260696    15.007315    -12.680454    2.712534    35.496563    -23.164886    0.142686    31.575796    28.984852    1.577117    3.543577    -5.279553    42.476078    -17.624733    9.285843    -25.542692    36.159458    0.000000    0.000000    0.000000    -82.647606    -42.701458    -49.901924    9.942725    16.813721    -9.037066    19.223351    9.673068    -33.690868    0.000000    0.000000    0.000000    
-20.406351    162.208374    -75.895660    -7.625489    -27.511515    44.478081    4.318890    7.125709    -3.328267    3.016954    8.428283    -1.239609    16.133158    3.535301    -7.510252    8.424741    -5.468580    -8.132212    7.817008    4.154813    -18.834332    -31.620100    -10.662049    -52.130600    38.336327    -60.732292    -46.078209    -23.586718    -46.014488    -36.598305    11.752083    8.147338    -10.021656    33.697006    16.243851    15.013638    -12.689258    2.742329    35.499561    -23.204426    0.154292    31.619701    28.976311    1.600934    3.566236    -5.257082    42.454357    -17.643679    9.334396    -25.520370    36.132267    0.000000    0.000000    0.000000    -82.651566    -42.701336    -49.890450    9.942323    16.819233    -9.011474    19.229902    9.666176    -33.701183    0.000000    0.000000    0.000000    
-20.379921    162.216171    -75.892845    -7.612041    -27.525488    44.486446    4.325101    7.133861    -3.340708    3.015044    8.439721    -1.243690    16.143400    3.552494    -7.499666    8.397515    -5.487887    -8.123616    7.824472    4.191667    -18.899944    -31.571583    -10.224849    -52.371929    37.732449    -60.745941    -47.055515    -23.689734    -45.942608    -36.532394    11.766572    8.136019    -10.012014    33.670601    16.219160    15.021025    -12.701192    2.769182    35.527863    -23.232069    0.182716    31.609131    28.971840    1.636041    3.563911    -5.252245    42.432079    -17.627327    9.347998    -25.514128    36.097076    0.000000    0.000000    0.000000    -82.634041    -42.687504    -49.845657    9.953342    16.823778    -9.000279    19.226034    9.648466    -33.694107    0.000000    0.000000    0.000000    
-20.363733    162.220078    -75.898682    -7.614202    -27.514769    44.484642    4.317726    7.127789    -3.350671    3.020027    8.442868    -1.247724    16.168873    3.569505    -7.483671    8.360482    -5.516703    -8.112385    7.833047    4.214806    -18.949322    -31.670717    -9.925999    -52.623154    36.487381    -60.646332    -48.646626    -23.729080    -45.793537    -36.412151    11.764053    8.131241    -10.005573    33.653500    16.204679    15.041737    -12.704110    2.784928    35.557652    -23.244131    0.190301    31.650398    28.959173    1.639233    3.574851    -5.244921    42.417950    -17.620613    9.388856    -25.485563    36.067444    0.000000    0.000000    0.000000    -83.109528    -42.519054    -48.486195    11.217675    16.831976    -9.659996    19.194860    9.228148    -34.793644    0.000000    0.000000    0.000000    
-20.343817    162.233917    -75.904694    -7.618051    -27.516752    44.480274    4.325609    7.133457    -3.356508    3.017465    8.438072    -1.249150    16.199226    3.576837    -7.474417    8.319818    -5.528138    -8.112146    7.845299    4.244071    -19.015360    -31.619219    -9.452797    -52.839554    35.538734    -60.689358    -49.984940    -23.769470    -45.840561    -36.243019    11.775100    8.138172    -9.997706    33.631577    16.188011    15.061887    -12.712952    2.787239    35.581104    -23.244171    0.196073    31.660625    28.954700    1.649422    3.568986    -5.249067    42.407516    -17.608328    9.388742    -25.469513    36.054832    0.000000    0.000000    0.000000    -83.101379    -42.535347    -48.441841    11.200156    16.853928    -9.729582    19.213057    9.239797    -34.758888    0.000000    0.000000    0.000000    
